<?xml version="1.0" standalone="no"?>
<!DOCTYPE svg PUBLIC "-//W3C//DTD SVG 20010904//EN"
 "http://www.w3.org/TR/2001/REC-SVG-20010904/DTD/svg10.dtd">
<svg version="1.0" xmlns="http://www.w3.org/2000/svg"
 width="867.000000pt" height="924.000000pt" viewBox="0 0 867.000000 924.000000"
 preserveAspectRatio="xMidYMid meet">

<g transform="translate(0.000000,924.000000) scale(0.100000,-0.100000)"
fill="#000000" stroke="none">
<path d="M3997 9193 c-22 -23 -37 -28 -75 -28 -39 0 -47 -3 -44 -17 2 -13 -4
-18 -21 -18 -31 0 -40 10 -25 27 9 11 7 12 -16 4 -14 -6 -53 -8 -86 -6 -74 7
-146 -17 -214 -69 -48 -36 -76 -46 -76 -25 0 6 -17 -3 -37 -21 -20 -18 -53
-39 -72 -47 -20 -9 -61 -36 -91 -62 -30 -26 -70 -57 -88 -70 -18 -12 -39 -36
-47 -51 -8 -16 -35 -41 -59 -55 -37 -22 -131 -120 -242 -253 -106 -126 -199
-321 -208 -437 -3 -38 -10 -106 -16 -150 -6 -44 -11 -122 -11 -174 l1 -93 54
-87 c29 -47 57 -99 60 -116 4 -16 21 -68 38 -115 27 -74 31 -96 29 -170 -3
-131 -2 -280 3 -335 3 -27 9 -96 13 -151 6 -79 12 -107 27 -123 11 -12 22 -21
26 -21 4 0 5 33 2 73 -2 39 -5 104 -6 142 -1 39 -5 75 -9 82 -4 6 -2 24 3 39
6 15 10 46 9 68 0 23 2 129 5 236 5 179 4 205 -18 315 -38 191 -48 273 -35
297 6 12 9 40 7 63 -4 33 -1 44 13 53 10 7 16 18 13 25 -3 8 2 20 10 27 18 14
12 32 -8 24 -29 -11 -25 15 5 37 28 20 30 23 14 29 -16 6 -15 9 9 26 15 10 38
30 49 43 12 14 30 33 40 43 9 10 17 25 17 33 0 8 16 22 35 31 20 9 50 37 67
63 27 39 159 175 275 282 18 16 47 32 64 36 17 3 33 12 36 19 3 8 14 14 24 14
10 0 24 9 31 19 11 18 13 18 25 3 11 -15 12 -15 13 6 0 15 6 22 20 22 11 0 23
7 26 15 7 18 89 21 100 4 5 -8 9 -7 15 4 6 10 19 14 40 12 24 -3 32 0 36 15 6
22 28 27 39 9 4 -8 9 -7 15 2 6 10 12 3 24 -23 8 -21 15 -42 15 -47 0 -5 4
-12 9 -16 11 -6 9 10 -8 71 -8 30 -8 42 3 52 12 12 17 7 35 -33 12 -26 21 -54
21 -61 0 -8 5 -14 11 -14 11 0 7 21 -16 77 -12 27 -11 33 4 47 22 20 37 20 45
1 3 -8 14 -15 24 -15 19 0 47 -32 76 -87 22 -43 39 -43 31 1 -7 36 8 57 28 37
17 -17 24 -13 23 11 -1 14 6 24 18 26 17 4 18 -1 12 -55 -6 -54 -6 -56 8 -33
9 14 15 35 16 48 0 19 4 22 21 17 12 -4 31 -8 43 -9 12 -2 34 -11 49 -21 26
-17 27 -17 27 4 0 23 19 28 38 9 7 -7 12 -8 12 -3 0 4 9 0 20 -10 23 -21 28
-44 5 -25 -20 16 -19 0 1 -28 8 -12 23 -22 32 -22 10 0 35 -22 57 -50 22 -27
44 -50 48 -50 5 0 26 14 48 30 l38 31 16 -25 c9 -13 30 -29 46 -35 19 -6 35
-22 44 -43 l13 -33 12 30 c9 21 14 25 18 15 3 -8 11 -19 18 -23 18 -11 18 -42
-1 -57 -20 -17 -19 -26 10 -85 34 -69 34 -154 0 -231 -21 -47 -24 -65 -18
-112 6 -52 5 -55 -15 -50 -27 7 -74 -38 -53 -52 11 -6 10 -13 -8 -35 -11 -15
-21 -35 -21 -44 0 -9 -9 -22 -20 -29 -11 -7 -20 -23 -20 -37 0 -14 -6 -34 -12
-45 -10 -15 -10 -24 -1 -39 6 -10 9 -28 6 -40 -6 -24 4 -26 31 -6 30 23 47 19
41 -8 -4 -15 -1 -28 9 -36 9 -8 16 -17 16 -21 0 -16 -35 -16 -48 0 -11 13 -12
11 -10 -15 2 -22 8 -29 20 -27 9 1 26 -11 39 -29 20 -29 21 -32 6 -41 -10 -5
-17 -17 -17 -26 0 -23 -23 -86 -37 -103 -17 -21 -39 -91 -35 -116 3 -20 8 -21
60 -17 31 3 90 10 131 17 69 11 75 14 97 49 34 54 58 64 78 33 9 -13 16 -40
16 -60 0 -28 -5 -37 -24 -45 -13 -5 -26 -14 -27 -19 -4 -10 -38 -17 -129 -26
-19 -2 -62 -9 -95 -15 -33 -6 -70 -8 -83 -5 -15 4 -21 2 -17 -5 4 -6 -4 -10
-17 -10 -13 0 -46 -14 -73 -31 -27 -17 -72 -34 -101 -39 -29 -5 -74 -18 -101
-30 -28 -12 -54 -20 -60 -18 -10 3 -123 -123 -123 -137 0 -5 -6 -16 -13 -24
-10 -13 -12 -54 -8 -191 4 -110 2 -207 -6 -263 -12 -93 -11 -104 32 -206 21
-52 25 -74 20 -110 -8 -59 -55 -156 -97 -202 -28 -30 -42 -37 -87 -42 -30 -4
-59 -11 -64 -16 -16 -16 4 -52 39 -69 37 -17 38 -20 51 -127 9 -81 32 -99 52
-43 20 53 39 83 54 86 16 3 63 -63 73 -102 11 -46 -3 -73 -50 -96 -35 -16 -53
-19 -83 -14 -46 10 -57 9 -156 -5 -107 -15 -187 -14 -221 4 -15 8 -40 15 -54
15 -36 0 -101 -47 -109 -79 -3 -14 -17 -47 -30 -73 -26 -53 -19 -62 17 -24 12
14 36 28 54 32 17 4 53 22 81 40 47 32 55 34 135 34 47 -1 150 -8 230 -16 80
-9 180 -18 222 -22 104 -9 116 -23 60 -69 -30 -25 -40 -39 -33 -47 16 -19 2
-51 -29 -69 -27 -16 -29 -16 -38 0 -6 11 -7 26 -1 42 6 13 8 30 5 38 -6 16
-92 18 -101 2 -4 -5 -19 -8 -33 -5 -34 7 -39 4 -101 -73 -54 -67 -66 -113 -34
-125 9 -4 52 1 95 9 l79 17 107 -32 c114 -33 153 -50 190 -80 22 -18 23 -21 7
-36 -10 -10 -15 -27 -12 -41 4 -22 2 -23 -23 -18 -25 6 -31 1 -63 -52 -20 -32
-52 -71 -73 -87 -33 -26 -41 -28 -91 -22 -64 7 -123 -6 -148 -33 -9 -11 -42
-25 -74 -31 -31 -7 -72 -15 -91 -19 -48 -10 -107 4 -148 35 -19 15 -70 72
-114 128 -71 91 -177 196 -197 196 -16 0 -89 118 -141 225 -59 122 -81 132
-26 12 90 -198 214 -370 367 -511 35 -32 68 -66 73 -75 5 -9 -2 -6 -16 7 -24
22 -75 32 -63 12 4 -6 15 -8 26 -5 15 5 19 1 19 -15 0 -19 -4 -21 -26 -17 -18
3 -24 1 -20 -8 2 -7 -4 -21 -15 -31 -10 -9 -19 -28 -19 -41 0 -19 -5 -24 -22
-21 -16 2 -23 -4 -29 -24 -4 -16 -3 -30 1 -33 5 -3 7 -12 3 -20 -10 -28 -42
-15 -73 30 -37 54 -100 189 -100 214 0 10 -7 24 -15 31 -17 14 -20 40 -5 40
20 0 11 47 -10 53 -20 5 -44 52 -35 67 3 5 -3 18 -14 29 -25 25 -89 221 -97
298 -5 50 -23 138 -40 195 -4 13 -1 16 10 12 20 -8 11 24 -18 61 l-24 29 -90
-82 c-50 -46 -103 -87 -119 -91 -17 -5 -95 1 -208 16 -281 37 -276 37 -510
-50 -110 -41 -241 -89 -290 -105 -50 -17 -142 -57 -205 -89 -79 -40 -157 -71
-250 -97 -74 -21 -148 -45 -165 -54 -20 -10 -61 -15 -126 -16 l-97 -1 -48 -41
c-27 -22 -86 -60 -131 -83 -92 -48 -245 -171 -328 -264 -65 -73 -149 -217
-175 -302 -10 -33 -48 -152 -84 -265 -35 -113 -79 -257 -96 -320 -18 -63 -43
-141 -58 -173 -23 -53 -25 -64 -15 -110 9 -42 8 -60 -4 -92 -25 -66 -29 -117
-17 -180 14 -74 11 -287 -5 -455 -12 -120 -10 -411 6 -865 11 -340 11 -350
-27 -460 -31 -94 -34 -110 -38 -260 l-4 -160 42 -120 c88 -255 202 -445 373
-620 l122 -125 489 0 c269 0 487 2 485 4 -6 6 -255 79 -414 122 -130 35 -314
109 -329 132 -3 5 1 15 9 22 13 11 20 9 43 -13 17 -16 59 -34 117 -51 109 -30
316 -77 368 -84 20 -2 40 -8 43 -13 3 -5 15 -9 27 -9 13 0 32 -7 43 -15 12 -8
24 -12 27 -8 11 10 101 -19 124 -39 20 -19 21 -19 31 -1 10 17 12 17 42 -5 17
-13 38 -21 47 -18 9 4 21 2 28 -4 9 -8 15 -8 20 0 3 5 17 10 31 10 28 0 29 7
9 34 -23 30 -18 37 21 34 23 -2 39 2 41 10 3 6 -2 12 -11 12 -19 0 -21 11 -5
27 16 16 -6 53 -31 53 -11 0 -20 5 -20 11 0 7 14 8 42 4 36 -6 40 -5 35 10 -4
9 -7 19 -7 21 0 2 -15 4 -32 4 -18 0 -53 7 -77 16 -31 10 -60 13 -96 9 -40 -5
-60 -3 -86 10 -23 12 -34 14 -37 6 -5 -16 -42 -13 -42 4 0 18 -67 47 -92 39
-21 -6 -21 -4 -8 30 5 15 15 24 23 20 16 -6 42 21 56 58 8 21 6 29 -10 44 -10
9 -19 23 -19 31 0 18 -20 17 -34 -3 -15 -20 -86 -10 -86 12 0 17 -16 19 -26 3
-3 -6 -17 -8 -29 -5 -19 5 -35 -6 -82 -52 -73 -73 -100 -90 -166 -103 -69 -15
-86 -13 -109 8 -19 17 -29 12 -41 -22 -2 -6 -11 -4 -22 5 -10 8 -29 13 -43 11
-21 -2 -24 0 -19 18 5 20 2 21 -31 15 -33 -6 -52 -18 -52 -34 0 -3 16 -16 35
-29 32 -22 48 -61 25 -61 -12 0 -93 45 -148 82 -134 92 -234 259 -234 393 0
33 0 107 -1 165 -2 301 -6 270 47 373 27 50 49 102 51 115 1 12 9 30 18 40 8
9 22 34 30 54 9 20 27 44 41 53 14 10 26 21 26 25 0 12 87 147 136 211 123
162 295 258 543 304 46 8 107 15 136 15 66 0 157 20 152 34 -2 5 -28 15 -58
21 -78 16 -107 32 -269 142 -178 121 -194 141 -186 235 6 63 4 69 -22 100 -63
74 -75 97 -69 140 4 27 16 51 39 75 18 19 37 52 43 75 12 48 50 81 93 81 15 0
73 -21 128 -47 l99 -47 17 21 c10 12 18 28 18 35 0 18 48 55 72 55 30 0 71
-25 153 -95 42 -36 81 -65 87 -65 21 0 401 -387 445 -452 25 -38 48 -70 53
-73 17 -10 82 -226 77 -253 -13 -64 -12 -67 8 -68 63 -2 179 -49 219 -88 31
-32 50 -34 43 -5 -5 18 -2 20 16 14 12 -4 33 -8 47 -8 18 -2 26 -9 28 -24 4
-26 12 -29 30 -11 14 14 128 -17 136 -38 4 -10 12 -11 28 -5 13 5 46 5 73 0
28 -4 55 -8 61 -8 5 -1 20 -15 33 -31 12 -17 18 -30 14 -29 -19 3 -33 -2 -33
-11 0 -15 71 -11 100 5 48 28 107 13 80 -20 -17 -20 14 -27 112 -23 70 2 89 0
113 -17 28 -18 97 -28 184 -27 23 1 45 -8 64 -24 15 -13 37 -24 47 -24 9 0 23
-7 30 -15 7 -8 29 -15 50 -15 34 0 38 3 44 30 5 30 6 30 69 30 35 0 67 -4 73
-10 5 -5 34 -9 64 -9 30 0 83 -1 117 -1 34 0 65 5 68 10 20 33 163 -33 176
-80 6 -23 7 -23 14 -6 5 11 3 32 -4 50 -24 60 -25 60 81 59 53 -1 105 -4 117
-8 13 -4 27 -1 37 9 21 22 48 20 94 -6 l38 -22 56 28 c46 23 64 27 97 22 23
-4 129 -1 236 5 251 15 319 6 375 -52 34 -36 36 -40 25 -69 -10 -26 -9 -36 5
-59 14 -26 14 -30 0 -45 -14 -14 -14 -18 6 -39 26 -27 28 -37 7 -37 -17 0 -19
-13 -6 -38 16 -29 24 -56 22 -71 -5 -31 11 -60 44 -79 19 -12 37 -17 40 -12 3
5 -6 42 -20 84 -41 122 -33 159 54 264 49 58 54 62 85 57 23 -5 36 -2 45 9 19
23 38 20 63 -9 12 -14 52 -35 97 -50 42 -14 107 -40 145 -58 l68 -32 43 -95
c33 -73 41 -99 33 -114 -7 -12 -6 -33 1 -61 16 -64 14 -109 -7 -128 -9 -9 -57
-31 -106 -49 l-88 -34 204 0 203 0 100 -33 c172 -57 393 -176 563 -303 109
-82 260 -207 282 -234 8 -9 59 -53 113 -96 149 -121 272 -255 292 -318 6 -19
16 -20 235 -20 l228 0 7 37 c4 21 51 170 106 333 92 276 181 594 231 825 42
195 26 713 -31 973 -63 290 -83 459 -59 498 55 90 60 106 56 178 -4 54 -14 90
-41 150 -35 73 -37 85 -37 175 0 53 -5 141 -10 196 -6 55 -17 177 -24 270 -16
202 -32 244 -120 320 -37 32 -73 79 -117 153 -72 123 -161 253 -228 332 -113
136 -316 352 -342 365 -17 9 -56 15 -98 15 -60 0 -88 7 -188 46 -147 57 -162
62 -232 69 -95 10 -164 24 -182 38 -9 6 -39 31 -68 54 -98 80 -130 87 -426 93
l-260 5 -154 78 c-175 89 -229 134 -318 261 -31 45 -90 116 -131 158 l-75 78
26 167 c14 93 29 198 32 235 3 37 8 75 11 83 4 8 35 29 71 46 69 33 114 83
134 148 15 50 6 316 -14 421 -42 222 -41 209 -12 275 26 58 27 62 15 133 -7
41 -10 98 -7 133 6 55 5 62 -18 83 -17 16 -21 26 -14 33 6 6 22 42 35 79 22
61 25 82 21 179 -3 90 -10 132 -39 230 -20 66 -41 140 -46 165 -6 25 -15 63
-21 85 -6 22 -11 58 -11 81 0 27 -8 51 -25 74 -14 19 -30 53 -36 75 -7 26 -27
55 -58 85 -26 25 -56 59 -66 75 -58 94 -178 202 -330 295 -80 49 -154 110
-155 127 0 19 -88 55 -139 56 -40 2 -54 -3 -75 -22 -21 -20 -26 -21 -26 -8 0
9 -7 17 -15 17 -21 0 -7 28 18 37 12 4 31 6 42 5 12 -1 9 3 -9 10 -22 8 -34 8
-49 -1 -14 -9 -22 -10 -30 -2 -21 21 -37 11 -43 -29 -6 -39 -7 -40 -21 -20 -8
12 -13 30 -10 41 3 10 0 19 -6 19 -18 0 -46 -31 -40 -46 12 -31 -27 -12 -43
21 -9 19 -20 35 -25 35 -4 0 -11 -16 -15 -35 -8 -45 -17 -44 -39 2 -15 31 -19
34 -27 19 -9 -16 -13 -15 -42 15 l-31 34 -3 -28 c-3 -26 -5 -27 -20 -14 -15
14 -60 25 -177 46 -22 4 -50 13 -62 19 -30 17 -35 15 -28 -9 6 -16 4 -20 -6
-14 -34 20 -39 27 -28 41 9 11 5 14 -23 14 -23 0 -42 -8 -61 -27z m664 -2468
c65 -61 103 -58 161 9 27 32 44 32 34 -1 -8 -24 -70 -63 -110 -70 -49 -8 -173
32 -182 59 -4 15 -1 26 12 35 27 19 32 17 85 -32z m-42 -85 c24 -17 57 -30 73
-30 24 0 28 -4 28 -30 0 -21 -5 -30 -16 -30 -28 0 -5 -18 32 -25 33 -6 144
-61 144 -71 0 -3 -11 -9 -25 -14 -18 -7 -23 -14 -18 -27 12 -33 43 -55 68 -49
20 5 25 1 35 -28 9 -27 8 -39 -2 -55 -7 -12 -18 -19 -25 -17 -21 8 -52 -56
-55 -114 -2 -37 -8 -59 -20 -68 -10 -7 -16 -25 -16 -42 1 -18 -8 -40 -20 -53
-12 -13 -22 -33 -22 -45 0 -19 -31 -42 -55 -42 -12 0 -126 173 -131 199 -4 17
-13 36 -20 42 -8 6 -14 22 -14 34 0 14 -7 25 -19 28 -16 4 -19 16 -20 92 -1
60 -7 97 -19 119 -42 79 -44 121 -5 121 13 0 19 9 21 35 2 19 7 39 12 44 6 6
5 15 -2 24 -9 10 -8 16 3 23 23 15 42 10 88 -21z"/>
<path d="M4760 8455 c0 -8 2 -15 4 -15 2 0 6 7 10 15 3 8 1 15 -4 15 -6 0 -10
-7 -10 -15z"/>
<path d="M3597 6994 c-3 -3 -76 -6 -161 -6 -86 0 -156 -2 -156 -6 0 -6 92 -50
183 -86 74 -30 43 -46 -104 -56 -90 -6 -114 -11 -153 -34 -25 -15 -50 -35 -56
-46 -14 -26 -2 -50 25 -50 13 0 26 -4 29 -9 7 -11 62 8 101 35 52 36 64 37 92
4 59 -71 115 -77 178 -19 49 46 71 43 77 -9 3 -26 5 -27 68 -27 l64 0 8 40 c5
21 17 49 28 60 11 12 20 28 20 37 0 18 -114 121 -123 112 -3 -4 -28 10 -55 30
-53 38 -55 39 -65 30z"/>
<path d="M3640 6635 c7 -9 15 -13 17 -11 7 7 -7 26 -19 26 -6 0 -6 -6 2 -15z"/>
<path d="M3610 6596 c-5 -5 -10 -16 -10 -23 0 -6 -8 -17 -17 -22 -10 -6 -13
-11 -6 -11 9 0 113 59 113 64 0 7 -72 0 -80 -8z"/>
<path d="M3678 5970 c-16 -16 -28 -33 -28 -39 0 -5 -6 -16 -13 -23 -8 -7 -16
-28 -20 -46 -6 -27 -4 -32 13 -32 22 0 90 112 90 148 0 29 -9 27 -42 -8z"/>
<path d="M3783 5884 c-26 -11 -11 -34 37 -59 27 -14 56 -25 65 -25 14 0 14 4
-2 31 -10 17 -23 34 -28 39 -14 12 -57 20 -72 14z"/>
<path d="M6061 1217 c-40 -48 -81 -60 -185 -52 -83 5 -89 5 -72 -10 11 -8 23
-15 28 -15 4 0 8 -7 8 -14 0 -8 12 -21 26 -28 34 -17 32 -33 -3 -34 -16 -1
-35 -3 -43 -5 -11 -3 -14 4 -13 27 4 47 -24 54 -57 15 -30 -37 -42 -31 -62 29
-8 25 -19 44 -24 42 -5 -1 -9 -27 -9 -56 0 -65 -27 -100 -87 -116 -21 -6 -38
-15 -38 -20 0 -16 -57 -40 -92 -40 -22 0 -40 -7 -52 -21 -15 -18 -25 -21 -64
-16 -26 3 -66 0 -89 -6 -36 -9 -45 -8 -61 6 -23 21 -36 22 -28 2 7 -18 2 -19
-25 -2 -17 10 -22 9 -33 -5 -7 -10 -23 -18 -34 -18 -11 0 -24 -5 -27 -10 -13
-20 -69 -37 -94 -28 -27 10 -46 0 -101 -53 -19 -18 -43 -34 -52 -36 -10 -1
-40 -17 -68 -34 -27 -17 -58 -29 -67 -27 -10 2 -23 -3 -29 -10 -8 -11 -15 -12
-31 -4 -17 9 -24 8 -38 -8 -13 -14 -22 -17 -40 -10 -17 6 -27 5 -35 -5 -7 -8
-16 -12 -21 -10 -4 3 -25 -2 -46 -11 -21 -9 -62 -18 -91 -20 -30 -2 -75 -10
-101 -19 -43 -14 -134 -33 -186 -39 -11 -2 -27 -5 -35 -8 -14 -5 -123 -31
-245 -57 -27 -6 -68 -14 -90 -17 -22 -3 -42 -10 -45 -15 -3 -5 -39 -17 -80
-28 -84 -21 -129 -41 -178 -76 -18 -13 -59 -29 -90 -36 -31 -6 -64 -19 -73
-29 -11 -11 -40 -19 -80 -23 -34 -4 -70 -14 -79 -22 -9 -8 -28 -15 -43 -15
-14 0 -39 -11 -54 -24 -27 -23 -115 -45 -151 -38 -7 2 -22 -4 -33 -12 -12 -8
-27 -12 -33 -10 -7 3 -60 -11 -119 -31 -83 -28 -136 -38 -228 -46 -66 -6 -146
-19 -176 -29 -40 -13 -63 -16 -80 -9 -40 15 -120 11 -127 -6 -5 -14 78 -15
734 -15 646 0 743 2 776 16 29 12 43 13 61 5 36 -17 44 -13 31 13 -11 25 -6
56 9 56 11 0 33 -49 33 -73 0 -12 6 -17 18 -15 18 4 18 6 6 111 -6 46 -5 47
21 47 17 0 34 9 47 25 14 17 29 25 52 25 17 0 36 4 42 9 20 21 170 91 193 91
14 0 37 12 52 26 18 17 40 27 66 28 21 1 53 12 72 23 27 17 44 20 88 16 33 -4
58 -2 61 4 4 6 32 14 62 18 50 7 53 6 41 -9 -12 -14 -11 -16 8 -16 17 0 21 4
17 18 -8 23 27 57 49 48 9 -3 29 4 46 16 27 20 32 21 65 9 28 -10 38 -10 44
-2 4 7 26 14 49 16 33 3 47 -1 63 -17 12 -12 23 -16 27 -11 3 6 27 13 52 17
41 6 47 5 52 -14 3 -13 13 -20 30 -20 13 0 30 -7 37 -15 7 -8 18 -15 26 -15 7
0 17 -6 21 -14 4 -8 17 -15 27 -17 12 -3 23 -16 28 -37 12 -46 32 -30 24 19
-5 31 -3 39 9 39 8 0 15 -9 15 -20 0 -16 7 -20 33 -20 18 0 42 6 53 14 26 18
49 5 41 -23 -3 -15 1 -25 15 -32 29 -16 30 -8 6 51 -21 51 -21 53 -3 66 13 9
35 12 65 9 25 -2 92 -9 150 -15 58 -6 113 -13 123 -16 13 -4 17 1 17 21 0 28
6 29 51 11 10 -4 23 -1 32 8 9 9 22 16 29 16 8 0 19 5 26 12 9 9 12 8 12 -4 0
-17 20 -28 51 -28 23 0 25 23 4 40 -8 7 -18 34 -21 61 -7 55 -19 70 -29 38 -7
-20 -8 -20 -17 -6 -5 10 -17 17 -27 17 -10 0 -31 10 -46 22 l-28 22 -28 -35
-29 -34 -20 23 c-18 22 -18 26 -5 45 20 28 19 34 -5 42 -15 5 -27 -2 -47 -25
l-26 -32 -13 24 c-7 12 -13 35 -14 51 0 16 -5 27 -14 27 -8 0 -17 14 -21 31
-7 33 1 52 11 25 8 -22 24 -20 24 2 0 30 32 51 106 68 192 44 418 104 427 113
7 7 7 18 -1 36 -7 14 -12 35 -12 47 0 21 -7 21 -69 2 -17 -5 -23 -4 -19 6 5
15 14 20 83 46 39 15 54 27 68 57 25 49 18 61 -12 24z"/>
</g>
</svg>
